<svg width="922" height="809" version="1.1" xmlns="http://www.w3.org/2000/svg" desc="Created with imagetracer.js version 1.2.6" ><path fill="rgb(3,2,129)" stroke="rgb(3,2,129)" stroke-width="1" opacity="1" d="M 15 15 L 901.5 15 L 902 15.5 L 902 88 L 15.5 88 L 15 87.5 L 15 15 Z M 28 24 L 28 46 L 30 47 L 55 47 Q 57 46 56 43 L 55 40 L 57 42 L 56 48 L 30 48 L 28 50 L 29 52 L 64 52 L 64 25 L 61 24 L 61 39 L 60 40 L 57 40 L 57 35 L 53 32 L 52 30 L 53 26 L 53 30 L 57 32 L 58 39 L 60 38 L 60 26 L 59 24 Q 52 23 49 26 L 47 24 L 28 24 Z M 68 24 L 66 26 L 66 31 Q 71 31 70 39 L 74 43 Q 73 47 75 47 L 93 47 L 93 24 L 68 24 Z M 692 24 L 692 81 L 822 81 L 822 24 L 692 24 Z M 829 24 L 829 81 L 895 81 L 895 24 L 829 24 Z M 117 28 L 117 76 L 132 76 L 135 74 L 137 70 L 137 35 L 135 30 L 132 28 L 117 28 Z M 147 28 L 145 30 L 145 75 L 147 76 L 164 76 L 165 75 L 165 30 L 164 28 L 147 28 Z M 171 28 L 179 52 L 170 75 L 170 76 L 175 76 L 180 62 Q 179 58 182 59 L 187 75 L 187 76 L 192 76 L 184 53 Q 186 39 192 29 L 188 28 L 182 44 L 176 31 L 176 28 L 171 28 Z M 80 48 L 77 52 L 93 52 L 93 50 L 92 48 L 80 48 Z M 30 54 L 28 56 L 28 77 L 46 77 L 47 76 L 59 77 L 60 76 L 60 64 L 59 62 L 40 62 L 30 54 Z M 79 54 L 70 63 L 70 71 L 69 72 Q 70 74 68 73 L 66 76 L 68 77 L 93 77 L 93 54 L 79 54 Z M 61 65 L 61 77 L 64 77 L 64 66 L 61 65 Z " /><path fill="rgb(3,2,129)" stroke="rgb(3,2,129)" stroke-width="1" opacity="1" d="M 50.5 32 L 53 33.5 L 52.5 38 L 50.5 32 Z " /><path fill="rgb(3,2,129)" stroke="rgb(3,2,129)" stroke-width="1" opacity="1" d="M 121 32 Q 127.9 31 131 33 L 132 35.5 L 132 68.5 Q 129.8 74 121 72 L 121 32 Z " /><path fill="rgb(3,2,129)" stroke="rgb(3,2,129)" stroke-width="1" opacity="1" d="M 149 32 L 160.5 32 L 161 32.5 L 161 72 L 149.5 72 L 149 71.5 L 149 32 Z " /><path fill="rgb(3,2,129)" stroke="rgb(3,2,129)" stroke-width="1" opacity="1" d="M 773.5 32 L 801 32.5 L 773.5 33 L 773.5 32 Z " /><path fill="rgb(3,2,129)" stroke="rgb(3,2,129)" stroke-width="1" opacity="1" d="M 847.5 36 L 854 36.5 L 847.5 37 L 847.5 36 Z " /><path fill="rgb(3,2,129)" stroke="rgb(3,2,129)" stroke-width="1" opacity="1" d="M 871.5 36 L 878 36.5 L 871.5 37 L 871.5 36 Z " /><path fill="rgb(3,2,129)" stroke="rgb(3,2,129)" stroke-width="1" opacity="1" d="M 773.5 40 L 801 40.5 L 773.5 41 L 773.5 40 Z " /><path fill="rgb(3,2,129)" stroke="rgb(3,2,129)" stroke-width="1" opacity="1" d="M 846.5 40 L 850 40.5 L 846.5 41 L 846.5 40 Z " /><path fill="rgb(3,2,129)" stroke="rgb(3,2,129)" stroke-width="1" opacity="1" d="M 875.5 40 L 878 40.5 L 875.5 41 L 875.5 40 Z " /><path fill="rgb(3,2,129)" stroke="rgb(3,2,129)" stroke-width="1" opacity="1" d="M 805.5 41 L 806 63.5 L 805 63.5 L 805.5 41 Z " /><path fill="rgb(3,2,129)" stroke="rgb(3,2,129)" stroke-width="1" opacity="1" d="M 850.5 44 L 854 44.5 L 850.5 45 L 850.5 44 Z " /><path fill="rgb(3,2,129)" stroke="rgb(3,2,129)" stroke-width="1" opacity="1" d="M 871.5 44 L 874 44.5 L 871.5 45 L 871.5 44 Z " /><path fill="rgb(3,2,129)" stroke="rgb(3,2,129)" stroke-width="1" opacity="1" d="M 854.5 48 L 858 48.5 L 854.5 49 L 854.5 48 Z " /><path fill="rgb(3,2,129)" stroke="rgb(3,2,129)" stroke-width="1" opacity="1" d="M 867.5 48 L 870 48.5 L 867.5 49 L 867.5 48 Z " /><path fill="rgb(3,2,129)" stroke="rgb(3,2,129)" stroke-width="1" opacity="1" d="M 215.5 112 L 216 117.5 L 215 117.5 L 215.5 112 Z " /><path fill="rgb(3,2,129)" stroke="rgb(3,2,129)" stroke-width="1" opacity="1" d="M 218.5 112 L 219 116.5 L 218 116.5 L 218.5 112 Z " /><path fill="rgb(3,2,129)" stroke="rgb(3,2,129)" stroke-width="1" opacity="1" d="M 159.5 114 L 162 114.5 L 159.5 115 L 159.5 114 Z " /><path fill="rgb(3,2,129)" stroke="rgb(3,2,129)" stroke-width="1" opacity="1" d="M 33.5 115 L 34 123.5 L 33 123.5 L 33.5 115 Z " /><path fill="rgb(3,2,129)" stroke="rgb(3,2,129)" stroke-width="1" opacity="1" d="M 131.5 124 L 132 136.5 L 131 136.5 L 131.5 124 Z " /><path fill="rgb(3,2,129)" stroke="rgb(3,2,129)" stroke-width="1" opacity="1" d="M 134.5 124 L 135 136.5 L 134 136.5 L 134.5 124 Z " /><path fill="rgb(3,2,129)" stroke="rgb(3,2,129)" stroke-width="1" opacity="1" d="M 337.5 124 L 338 126.5 L 336.5 128 L 328.5 128 L 328.5 127 L 336.5 127 L 337.5 124 Z " /><path fill="rgb(3,2,129)" stroke="rgb(3,2,129)" stroke-width="1" opacity="1" d="M 340.5 124 L 341 129.5 L 339.5 131 L 328.5 131 L 328.5 130 L 340 130 L 340.5 124 Z " /><path fill="rgb(3,2,129)" stroke="rgb(3,2,129)" stroke-width="1" opacity="1" d="M 69.5 127 L 78 127.5 L 69.5 128 L 69.5 127 Z " /><path fill="rgb(3,2,129)" stroke="rgb(3,2,129)" stroke-width="1" opacity="1" d="M 202 127 L 205 127.5 L 203 128 L 202.5 133 L 202 127 Z " /><path fill="rgb(3,2,129)" stroke="rgb(3,2,129)" stroke-width="1" opacity="1" d="M 209.5 127 L 212 127.5 L 209.5 128 L 209.5 127 Z " /><path fill="rgb(3,2,129)" stroke="rgb(3,2,129)" stroke-width="1" opacity="1" d="M 233.5 127 L 243 127.5 L 233.5 128 L 233.5 127 Z " /><path fill="rgb(3,2,129)" stroke="rgb(3,2,129)" stroke-width="1" opacity="1" d="M 257.5 127 L 260 127.5 L 257.5 128 L 257.5 127 Z " /><path fill="rgb(3,2,129)" stroke="rgb(3,2,129)" stroke-width="1" opacity="1" d="M 263.5 127 L 266 127.5 L 263.5 128 L 263.5 127 Z " /><path fill="rgb(3,2,129)" stroke="rgb(3,2,129)" stroke-width="1" opacity="1" d="M 33.5 128 L 34 139.5 L 33 139.5 L 33.5 128 Z " /><path fill="rgb(3,2,129)" stroke="rgb(3,2,129)" stroke-width="1" opacity="1" d="M 69.5 130 L 81 130.5 L 69.5 131 L 69.5 130 Z " /><path fill="rgb(3,2,129)" stroke="rgb(3,2,129)" stroke-width="1" opacity="1" d="M 234.5 130 L 246 130.5 L 234.5 131 L 234.5 130 Z " /><path fill="rgb(3,2,129)" stroke="rgb(3,2,129)" stroke-width="1" opacity="1" d="M 253.5 134 L 254 139.5 L 253 139.5 L 253.5 134 Z " /><path fill="rgb(3,2,129)" stroke="rgb(3,2,129)" stroke-width="1" opacity="1" d="M 256.5 134 L 257 139.5 L 256 139.5 L 256.5 134 Z " /><path fill="rgb(3,2,129)" stroke="rgb(3,2,129)" stroke-width="1" opacity="1" d="M 269.5 134 L 270 139.5 L 269 139.5 L 269.5 134 Z " /><path fill="rgb(3,2,129)" stroke="rgb(3,2,129)" stroke-width="1" opacity="1" d="M 337.5 134 L 338 136.5 L 337 136.5 L 337.5 134 Z " /><path fill="rgb(3,2,129)" stroke="rgb(3,2,129)" stroke-width="1" opacity="1" d="M 340.5 134 L 341 136.5 L 340 136.5 L 340.5 134 Z " /><path fill="rgb(167,159,170)" stroke="rgb(167,159,170)" stroke-width="1" opacity="1" d="M 8 8 L 914 8 L 914 801 L 8 801 L 8 8 Z M 9 9 L 9 800 L 913 800 L 913 9 L 9 9 Z " /><path fill="rgb(167,159,170)" stroke="rgb(167,159,170)" stroke-width="1" opacity="1" d="M 14 14 L 901.5 14 L 903 15.5 L 902.5 88 L 902 15 L 15.5 15 L 15 15.5 L 15 87.5 L 14 87.5 L 14 14 Z " /><path fill="rgb(167,159,170)" stroke="rgb(167,159,170)" stroke-width="1" opacity="1" d="M 28 24 L 46.5 24 L 48 25.5 L 48 29.5 L 52 34.5 L 52 37.5 L 56 42.5 L 56 45.5 L 54.5 47 L 29.5 47 L 28 45.5 L 28 28.5 L 29 28.5 L 29 42.5 L 30.5 43 L 34.5 45 L 38.5 43 L 42.5 45 L 46.5 43 L 50.5 45 Q 54.8 43.3 52 41.5 L 47 34.5 L 47 32.5 L 48 30.5 L 47 28 L 45 28 L 44.5 25 L 29.5 25 L 28 25.5 L 28 24 Z " /><path fill="rgb(167,159,170)" stroke="rgb(167,159,170)" stroke-width="1" opacity="1" d="M 52 24 Q 58.1 22.3 60 25.5 L 60 37.5 L 58.5 39 L 57 32 L 53 29.5 L 52 24 Z " /><path fill="rgb(167,159,170)" stroke="rgb(167,159,170)" stroke-width="1" opacity="1" d="M 67.5 24 L 93 24.5 L 69.5 25 L 68 26.5 Q 67.4 31.6 70.5 33 Q 73.3 32.4 72 38.5 L 76 41 L 78.5 45 Q 84.8 45.8 87.5 43 L 91.5 45 L 93 44.5 L 92.5 47 L 74 47 L 74 42.5 L 70 38.5 Q 71 31.5 66 30.5 L 66 25.5 L 67.5 24 Z " /><path fill="rgb(167,159,170)" stroke="rgb(167,159,170)" stroke-width="1" opacity="1" d="M 146.5 28 L 145.5 30 L 146.5 28 Z " /><path fill="rgb(167,159,170)" stroke="rgb(167,159,170)" stroke-width="1" opacity="1" d="M 163.5 28 L 164.5 30 L 163.5 28 Z " /><path fill="rgb(167,159,170)" stroke="rgb(167,159,170)" stroke-width="1" opacity="1" d="M 700 32 L 750 32 L 750 73 L 700 73 L 700 32 Z M 701 33 L 701 72 L 749 72 L 749 33 L 701 33 Z " /><path fill="rgb(167,159,170)" stroke="rgb(167,159,170)" stroke-width="1" opacity="1" d="M 765 32 L 769 32.5 L 766 33 L 766 72 L 813 72 L 813 33.5 Q 812.8 32.3 806.5 33 L 806.5 32 L 813.5 32 L 814 32.5 L 814 73 L 765 73 L 765 32 Z " /><path fill="rgb(167,159,170)" stroke="rgb(167,159,170)" stroke-width="1" opacity="1" d="M 837 32 L 887 32 L 887 73 L 837 73 L 837 32 Z M 838 33 L 838 72 L 886 72 L 886 33 L 838 33 Z " /><path fill="rgb(167,159,170)" stroke="rgb(167,159,170)" stroke-width="1" opacity="1" d="M 878.5 36 L 879 40.5 L 878 40.5 L 878.5 36 Z " /><path fill="rgb(167,159,170)" stroke="rgb(167,159,170)" stroke-width="1" opacity="1" d="M 854.5 37 L 855 40 L 859 41.5 L 859 44 L 865.5 44 L 865.5 45 Q 859.5 46.5 858 43.5 Q 859.3 39.8 855.5 41 Q 853 40 854.5 37 Z " /><path fill="rgb(167,159,170)" stroke="rgb(167,159,170)" stroke-width="1" opacity="1" d="M 866.5 40 L 870 40.5 L 866.5 41 L 866.5 40 Z " /><path fill="rgb(167,159,170)" stroke="rgb(167,159,170)" stroke-width="1" opacity="1" d="M 773.5 41 L 774 64 L 801 64 L 801 41.5 L 802 41.5 L 802 63.5 L 800.5 65 L 773 65 L 773.5 41 Z " /><path fill="rgb(167,159,170)" stroke="rgb(167,159,170)" stroke-width="1" opacity="1" d="M 874.5 41 L 875 44.5 L 874 44.5 L 874.5 41 Z " /><path fill="rgb(167,159,170)" stroke="rgb(167,159,170)" stroke-width="1" opacity="1" d="M 180.5 43 L 181.5 45 Q 178.7 45.7 180.5 43 Z " /><path fill="rgb(167,159,170)" stroke="rgb(167,159,170)" stroke-width="1" opacity="1" d="M 870.5 45 L 871 48.5 L 870 48.5 L 870.5 45 Z " /><path fill="rgb(167,159,170)" stroke="rgb(167,159,170)" stroke-width="1" opacity="1" d="M 866.5 49 L 867 52 L 871 52 L 871 56 L 875 56 Q 873 62 879 60 L 879 64.5 L 878 64.5 Q 879.7 59.7 875.5 61 L 874 57 L 870 55.5 Q 871.3 51.8 867.5 53 Q 865 52 866.5 49 Z " /><path fill="rgb(167,159,170)" stroke="rgb(167,159,170)" stroke-width="1" opacity="1" d="M 854.5 52 L 858 52.5 L 854.5 53 L 854.5 52 Z " /><path fill="rgb(167,159,170)" stroke="rgb(167,159,170)" stroke-width="1" opacity="1" d="M 29.5 54 L 39.5 62 L 58.5 62 L 60 63.5 L 60 75.5 L 58.5 77 L 46.5 76 L 45.5 77 L 28 77 L 28.5 60 L 29.5 72 L 31.5 72 L 35.5 73 L 38.5 71 L 43.5 73 L 46.5 71 L 52 73 L 53.5 76 Q 57.9 77.5 57 74.5 L 56 69.5 L 57 66.5 L 54.5 64 L 37 64 L 34.5 60 Q 32.3 60.8 33 58.5 L 29 56 L 28.5 58 L 28 55.5 L 29.5 54 Z " /><path fill="rgb(167,159,170)" stroke="rgb(167,159,170)" stroke-width="1" opacity="1" d="M 78.5 54 L 92.5 54 L 93 56 L 78.5 56 L 77 57.5 L 75.5 60 L 73 61.5 L 72 70.5 Q 72.5 73.5 76.5 73 L 80.5 72 L 83.5 73 L 86.5 71 L 91.5 73 L 93 72.5 Q 93.5 77 92.5 77 L 67.5 77 L 66 74.5 L 69 73 Q 71 70 70 62.5 L 78.5 54 Z " /><path fill="rgb(167,159,170)" stroke="rgb(167,159,170)" stroke-width="1" opacity="1" d="M 850.5 56 L 854 56.5 L 850.5 57 L 850.5 56 Z " /><path fill="rgb(167,159,170)" stroke="rgb(167,159,170)" stroke-width="1" opacity="1" d="M 181.5 57 L 182 59 L 180 58.5 L 181.5 57 Z " /><path fill="rgb(167,159,170)" stroke="rgb(167,159,170)" stroke-width="1" opacity="1" d="M 858.5 57 L 859 60.5 L 858 60.5 L 858.5 57 Z " /><path fill="rgb(167,159,170)" stroke="rgb(167,159,170)" stroke-width="1" opacity="1" d="M 708 60 L 733 60.5 L 709 61 L 708.5 69 L 708 60 Z " /><path fill="rgb(167,159,170)" stroke="rgb(167,159,170)" stroke-width="1" opacity="1" d="M 846.5 60 L 850 60.5 L 846.5 61 L 846.5 60 Z " /><path fill="rgb(167,159,170)" stroke="rgb(167,159,170)" stroke-width="1" opacity="1" d="M 854.5 61 L 855 64.5 L 854 64.5 L 854.5 61 Z " /><path fill="rgb(167,159,170)" stroke="rgb(167,159,170)" stroke-width="1" opacity="1" d="M 131.5 69 L 129.5 72 L 131.5 69 Z " /><path fill="rgb(167,159,170)" stroke="rgb(167,159,170)" stroke-width="1" opacity="1" d="M 145.5 74 L 146.5 76 L 145.5 74 Z " /><path fill="rgb(167,159,170)" stroke="rgb(167,159,170)" stroke-width="1" opacity="1" d="M 164.5 74 L 163.5 76 L 164.5 74 Z " /><path fill="rgb(167,159,170)" stroke="rgb(167,159,170)" stroke-width="1" opacity="1" d="M 46.5 111 L 47 115 L 34 114.5 L 46 114 L 46.5 111 Z " /><path fill="rgb(167,159,170)" stroke="rgb(167,159,170)" stroke-width="1" opacity="1" d="M 50.5 111 L 51 114 L 54 114.5 L 50 115 L 50.5 111 Z " /><path fill="rgb(167,159,170)" stroke="rgb(167,159,170)" stroke-width="1" opacity="1" d="M 57.5 111 L 58 140 L 61 140.5 L 58.5 141 L 57 139.5 L 57.5 111 Z " /><path fill="rgb(167,159,170)" stroke="rgb(167,159,170)" stroke-width="1" opacity="1" d="M 127.5 111 L 128 115 L 115 115 L 115 123.5 L 114 123.5 L 114 115.5 L 115.5 114 L 126.5 114 L 127.5 111 Z " /><path fill="rgb(167,159,170)" stroke="rgb(167,159,170)" stroke-width="1" opacity="1" d="M 147.5 111 L 148 141 L 134.5 141 L 134 138 L 132.5 138 L 132.5 137 L 135 137 L 135.5 140 L 147 140 L 147.5 111 Z " /><path fill="rgb(167,159,170)" stroke="rgb(167,159,170)" stroke-width="1" opacity="1" d="M 151.5 111 L 152 114 L 155 114.5 L 151 115 L 151.5 111 Z " /><path fill="rgb(167,159,170)" stroke="rgb(167,159,170)" stroke-width="1" opacity="1" d="M 199.5 111 L 200 117 L 203 117.5 L 203 126.5 L 199.5 128 L 199.5 127 L 202 126.5 L 202 118 L 199 118 L 199.5 111 Z " /><path fill="rgb(167,159,170)" stroke="rgb(167,159,170)" stroke-width="1" opacity="1" d="M 222.5 111 L 223 114 L 226 114.5 L 222 115 L 222.5 111 Z " /><path fill="rgb(167,159,170)" stroke="rgb(167,159,170)" stroke-width="1" opacity="1" d="M 304.5 111 L 305 123.5 L 304 123.5 L 304.5 111 Z " /><path fill="rgb(167,159,170)" stroke="rgb(167,159,170)" stroke-width="1" opacity="1" d="M 320.5 111 L 321 141 L 317 140.5 L 320 140 L 320.5 111 Z " /><path fill="rgb(167,159,170)" stroke="rgb(167,159,170)" stroke-width="1" opacity="1" d="M 344.5 111 L 345 140 L 348 140.5 L 344 141 L 344.5 111 Z " /><path fill="rgb(167,159,170)" stroke="rgb(167,159,170)" stroke-width="1" opacity="1" d="M 158.5 114 L 159 137 L 162 137.5 L 159.5 138 L 158 136.5 L 158.5 114 Z " /><path fill="rgb(167,159,170)" stroke="rgb(167,159,170)" stroke-width="1" opacity="1" d="M 212.5 117 L 216 118.5 L 216 127.5 L 213 128 L 213 133.5 L 212 133.5 L 212 127 L 215 126.5 L 215 118 Q 211.7 118.8 212.5 117 Z " /><path fill="rgb(167,159,170)" stroke="rgb(167,159,170)" stroke-width="1" opacity="1" d="M 51.5 120 L 53 120.5 L 51 121 L 51 139.5 L 53.5 140 L 53.5 141 L 50 140.5 L 50 121.5 L 51.5 120 Z " /><path fill="rgb(167,159,170)" stroke="rgb(167,159,170)" stroke-width="1" opacity="1" d="M 135.5 120 L 144 120.5 L 135 121 L 135 124 L 143.5 124 L 143.5 125 L 135.5 125 L 134 123.5 L 135.5 120 Z " /><path fill="rgb(167,159,170)" stroke="rgb(167,159,170)" stroke-width="1" opacity="1" d="M 152.5 120 L 154 120.5 L 152 121 L 152 139.5 L 154.5 140 L 154.5 141 L 151 140.5 L 151 121.5 L 152.5 120 Z " /><path fill="rgb(167,159,170)" stroke="rgb(167,159,170)" stroke-width="1" opacity="1" d="M 223.5 120 L 226 120.5 L 223 121 L 223 139.5 L 225.5 140 L 225.5 141 L 222 140.5 L 222 121.5 L 223.5 120 Z " /><path fill="rgb(167,159,170)" stroke="rgb(167,159,170)" stroke-width="1" opacity="1" d="M 250.5 120 L 254 121.5 L 254 132.5 L 256 133 L 256.5 127 L 257 134 L 253 134 L 253 121.5 L 250.5 121 L 250.5 120 Z " /><path fill="rgb(167,159,170)" stroke="rgb(167,159,170)" stroke-width="1" opacity="1" d="M 260.5 120 L 263 120.5 L 260 121 L 260 127 L 262.5 127 L 262.5 128 L 259 126.5 Q 257.8 121.3 260.5 120 Z " /><path fill="rgb(167,159,170)" stroke="rgb(167,159,170)" stroke-width="1" opacity="1" d="M 270.5 120 L 272 120.5 L 270 121 L 270 133.5 L 266 134 L 266.5 127 L 267 133 L 269 132.5 L 269 121.5 L 270.5 120 Z " /><path fill="rgb(167,159,170)" stroke="rgb(167,159,170)" stroke-width="1" opacity="1" d="M 165.5 121 L 166 123.5 L 162.5 125 L 162.5 124 Q 166.5 125.1 165.5 121 Z " /><path fill="rgb(167,159,170)" stroke="rgb(167,159,170)" stroke-width="1" opacity="1" d="M 327.5 121 L 328 124 L 336.5 124 L 337 121.5 L 338 121.5 L 336.5 125 L 328.5 125 L 327 123.5 L 327.5 121 Z " /><path fill="rgb(167,159,170)" stroke="rgb(167,159,170)" stroke-width="1" opacity="1" d="M 43.5 124 L 44 128 L 34 127.5 L 43 127 L 43.5 124 Z " /><path fill="rgb(167,159,170)" stroke="rgb(167,159,170)" stroke-width="1" opacity="1" d="M 68 124 L 78 124.5 L 69 125 L 68.5 127 L 68 124 Z " /><path fill="rgb(167,159,170)" stroke="rgb(167,159,170)" stroke-width="1" opacity="1" d="M 81.5 124 L 82 130.5 L 81 130.5 L 81.5 124 Z " /><path fill="rgb(167,159,170)" stroke="rgb(167,159,170)" stroke-width="1" opacity="1" d="M 233 124 L 242.5 124 L 243 126.5 L 242 126.5 L 241.5 125 L 234 125 L 233.5 127 L 233 124 Z " /><path fill="rgb(167,159,170)" stroke="rgb(167,159,170)" stroke-width="1" opacity="1" d="M 324.5 124 L 325 137 L 328 137 L 328.5 140 L 337 140 Q 335.3 135.9 339.5 137 L 339.5 138 L 338 138 L 337.5 141 L 327 141 Q 328.5 137.3 325.5 138 L 324 136.5 L 324.5 124 Z " /><path fill="rgb(167,159,170)" stroke="rgb(167,159,170)" stroke-width="1" opacity="1" d="M 355 124 L 365 124 L 365 136.5 L 368 137 L 368.5 124 L 369 136.5 L 365.5 138 L 364 136.5 L 364 125 L 356 125 L 356 136.5 L 355 136.5 L 355 124 Z " /><path fill="rgb(167,159,170)" stroke="rgb(167,159,170)" stroke-width="1" opacity="1" d="M 246.5 125 L 247 129.5 L 246 129.5 L 246.5 125 Z " /><path fill="rgb(167,159,170)" stroke="rgb(167,159,170)" stroke-width="1" opacity="1" d="M 115.5 127 L 124 127.5 L 115 128 L 114.5 137 L 114 128.5 L 115.5 127 Z " /><path fill="rgb(167,159,170)" stroke="rgb(167,159,170)" stroke-width="1" opacity="1" d="M 305.5 127 L 317 127.5 L 305 128 L 305 140.5 L 301.5 141 L 301.5 140 L 304 139.5 L 304 128.5 L 305.5 127 Z " /><path fill="rgb(167,159,170)" stroke="rgb(167,159,170)" stroke-width="1" opacity="1" d="M 208.5 128 L 209 134 L 206 134 L 206 140 L 209 140.5 L 205 141 L 205 134.5 L 206.5 133 L 208 133 L 208.5 128 Z " /><path fill="rgb(167,159,170)" stroke="rgb(167,159,170)" stroke-width="1" opacity="1" d="M 68.5 131 L 69 136.5 L 65.5 138 L 65.5 137 L 68 137 L 68.5 131 Z " /><path fill="rgb(167,159,170)" stroke="rgb(167,159,170)" stroke-width="1" opacity="1" d="M 233.5 131 L 234 136.5 L 230.5 138 L 230.5 137 L 233 137 L 233.5 131 Z " /><path fill="rgb(167,159,170)" stroke="rgb(167,159,170)" stroke-width="1" opacity="1" d="M 78.5 133 L 82 134.5 L 80.5 138 L 78 137.5 L 81 137 Q 82.7 132.9 78.5 134 L 78.5 133 Z " /><path fill="rgb(167,159,170)" stroke="rgb(167,159,170)" stroke-width="1" opacity="1" d="M 243.5 133 L 247 134.5 L 245.5 138 L 242 136.5 L 243.5 133 Z M 243 134 Q 242 139 246 137 Q 248 133 243 134 Z " /><path fill="rgb(167,159,170)" stroke="rgb(167,159,170)" stroke-width="1" opacity="1" d="M 337.5 133 L 341 133.5 L 337.5 134 L 337.5 133 Z " /><path fill="rgb(167,159,170)" stroke="rgb(167,159,170)" stroke-width="1" opacity="1" d="M 127.5 137 L 128 141 L 111 140.5 L 127 140 L 127.5 137 Z " /><path fill="rgb(167,159,170)" stroke="rgb(167,159,170)" stroke-width="1" opacity="1" d="M 165.5 137 L 166 141 L 162 140.5 L 165 140 L 165.5 137 Z " /><path fill="rgb(167,159,170)" stroke="rgb(167,159,170)" stroke-width="1" opacity="1" d="M 30.5 140 L 34 140.5 L 30.5 141 L 30.5 140 Z " /><path fill="rgb(167,159,170)" stroke="rgb(167,159,170)" stroke-width="1" opacity="1" d="M 68.5 140 L 78 140.5 L 68.5 141 L 68.5 140 Z " /><path fill="rgb(167,159,170)" stroke="rgb(167,159,170)" stroke-width="1" opacity="1" d="M 233.5 140 L 243 140.5 L 233.5 141 L 233.5 140 Z " /><path fill="rgb(167,159,170)" stroke="rgb(167,159,170)" stroke-width="1" opacity="1" d="M 253.5 140 L 257 140.5 L 253.5 141 L 253.5 140 Z " /><path fill="rgb(167,159,170)" stroke="rgb(167,159,170)" stroke-width="1" opacity="1" d="M 266.5 140 L 270 140.5 L 266.5 141 L 266.5 140 Z " /><path fill="rgb(167,159,170)" stroke="rgb(167,159,170)" stroke-width="1" opacity="1" d="M 355 140 L 365 140.5 L 356 141 L 355.5 147 L 355 140 Z " /><path fill="rgb(167,159,170)" stroke="rgb(167,159,170)" stroke-width="1" opacity="1" d="M 48.5 142 L 49 145 L 28 144.5 L 48 144 L 48.5 142 Z " /><path fill="rgb(167,159,170)" stroke="rgb(167,159,170)" stroke-width="1" opacity="1" d="M 129.5 142 L 130 145 L 109 144.5 L 129 144 L 129.5 142 Z " /><path fill="rgb(167,159,170)" stroke="rgb(167,159,170)" stroke-width="1" opacity="1" d="M 194.5 144 L 221 144.5 L 194.5 145 L 194.5 144 Z " /><path fill="rgb(167,159,170)" stroke="rgb(167,159,170)" stroke-width="1" opacity="1" d="M 299.5 144 L 323 144.5 L 299.5 145 L 299.5 144 Z " /><path fill="rgb(167,159,170)" stroke="rgb(167,159,170)" stroke-width="1" opacity="1" d="M 22 173 L 895 173 L 895 782 L 22 782 L 22 173 Z M 23 174 L 23 781 L 894 781 L 894 174 L 23 174 Z " /><path fill="rgb(195,185,192)" stroke="rgb(195,185,192)" stroke-width="1" opacity="1" d="M 44.5 25 L 45 28 Q 47.7 26.9 47 29.5 L 48 31.5 L 47 34.5 L 53 42.5 Q 51.3 46.8 49.5 44 L 46.5 43 L 42.5 45 L 38.5 43 L 34.5 45 L 29 43 L 29 28.5 L 28 27.5 L 30.5 27 L 34.5 30 L 35 28 L 39.5 27 L 43 29.5 L 44.5 25 Z " /><path fill="rgb(195,185,192)" stroke="rgb(195,185,192)" stroke-width="1" opacity="1" d="M 68.5 26 L 69 29.5 L 68 29.5 L 68.5 26 Z " /><path fill="rgb(195,185,192)" stroke="rgb(195,185,192)" stroke-width="1" opacity="1" d="M 78.5 27 L 83.5 29 L 87.5 27 L 91.5 29 L 93 28.5 L 93 43.5 L 91.5 45 L 86.5 43 Q 84.5 46 78.5 45 L 76 41 L 72 38.5 L 72.5 34 Q 71.9 38.6 74.5 40 Q 77.5 40.9 76 36.5 Q 80.5 34 75 31.5 L 76.5 28 L 78.5 27 Z M 78 42 Q 78 46 80 43 L 78 42 Z " /><path fill="rgb(195,185,192)" stroke="rgb(195,185,192)" stroke-width="1" opacity="1" d="M 69.5 31 L 70.5 33 L 69.5 31 Z " /><path fill="rgb(195,185,192)" stroke="rgb(195,185,192)" stroke-width="1" opacity="1" d="M 78.5 56 L 93 56.5 L 78.5 57 L 77.5 58 L 78.5 56 Z " /><path fill="rgb(195,185,192)" stroke="rgb(195,185,192)" stroke-width="1" opacity="1" d="M 74.5 60 L 73.5 62 L 74.5 60 Z " /><path fill="rgb(195,185,192)" stroke="rgb(195,185,192)" stroke-width="1" opacity="1" d="M 80.5 60 Q 85.5 59 86.5 62 Q 88 58.8 93 60 L 93 71.5 L 91.5 73 L 86.5 71 L 81.5 73 L 78 72 L 76 68.5 L 76 64.5 L 79 63 L 80.5 60 Z " /><path fill="rgb(195,185,192)" stroke="rgb(195,185,192)" stroke-width="1" opacity="1" d="M 29.5 61 L 38.5 70 L 40.5 68 Q 45.5 67 46.5 70 Q 47.5 67 52.5 68 L 56 70 L 57 76 Q 53.2 77 52 74.5 Q 52.8 71.9 49.5 73 L 46.5 71 L 41.5 73 L 38.5 71 L 33.5 73 L 30.5 71 L 29 71.5 L 29.5 61 Z " /><path fill="rgb(195,185,192)" stroke="rgb(195,185,192)" stroke-width="1" opacity="1" d="M 72.5 63 L 73 70.5 L 72 70.5 L 72.5 63 Z " /><path fill="rgb(195,185,192)" stroke="rgb(195,185,192)" stroke-width="1" opacity="1" d="M 38.5 64 L 55 64.5 L 38.5 65 L 38.5 64 Z " /><path fill="rgb(195,185,192)" stroke="rgb(195,185,192)" stroke-width="1" opacity="1" d="M 56.5 66 L 57 68.5 L 56 68.5 L 56.5 66 Z " /><path fill="rgb(195,185,192)" stroke="rgb(195,185,192)" stroke-width="1" opacity="1" d="M 162.5 114 L 163 120 L 166 120.5 L 162 121 L 162.5 114 Z " /><path fill="rgb(195,185,192)" stroke="rgb(195,185,192)" stroke-width="1" opacity="1" d="M 68.5 120 L 78 120.5 L 68.5 121 L 68.5 120 Z " /><path fill="rgb(195,185,192)" stroke="rgb(195,185,192)" stroke-width="1" opacity="1" d="M 233.5 120 L 243 120.5 L 233.5 121 L 233.5 120 Z " /><path fill="rgb(195,185,192)" stroke="rgb(195,185,192)" stroke-width="1" opacity="1" d="M 263.5 120 L 264 126.5 L 263 126.5 L 263.5 120 Z " /><path fill="rgb(195,185,192)" stroke="rgb(195,185,192)" stroke-width="1" opacity="1" d="M 327.5 120 L 338 120.5 L 327.5 121 L 327.5 120 Z " /><path fill="rgb(195,185,192)" stroke="rgb(195,185,192)" stroke-width="1" opacity="1" d="M 352.5 120 L 365 120.5 L 352.5 121 L 352.5 120 Z " /><path fill="rgb(195,185,192)" stroke="rgb(195,185,192)" stroke-width="1" opacity="1" d="M 124.5 124 L 125 127.5 L 124 127.5 L 124.5 124 Z " /><path fill="rgb(195,185,192)" stroke="rgb(195,185,192)" stroke-width="1" opacity="1" d="M 229.5 124 L 230 137.5 L 229 137.5 L 229.5 124 Z " /><path fill="rgb(195,185,192)" stroke="rgb(195,185,192)" stroke-width="1" opacity="1" d="M 162.5 125 L 163 136.5 L 162 136.5 L 162.5 125 Z " /><path fill="rgb(195,185,192)" stroke="rgb(195,185,192)" stroke-width="1" opacity="1" d="M 77.5 133 L 78 136.5 L 77 136.5 L 77.5 133 Z " /><path fill="rgb(195,185,193)" stroke="rgb(195,185,193)" stroke-width="1" opacity="1" d="M 9 9 L 913 9 L 913 800 L 9 800 L 9 9 Z M 14 14 L 14 88 L 15 88 L 903 88 L 903 15 L 903 14 L 14 14 Z M 30 111 L 30 141 L 34 141 L 34 128 L 44 128 L 44 124 L 34 124 L 34 115 L 47 115 L 47 111 L 30 111 Z M 50 111 Q 48 117 54 115 Q 56 109 50 111 Z M 57 111 L 57 141 L 61 141 L 61 112 L 57 111 Z M 111 111 L 111 141 L 128 141 L 128 137 L 115 137 L 115 128 L 125 128 L 125 124 L 115 124 L 115 115 L 128 115 L 128 111 L 111 111 Z M 144 111 L 144 120 L 135 120 L 134 124 L 131 124 L 131 138 L 134 138 L 134 141 L 148 141 L 148 112 L 144 111 Z M 151 111 Q 149 117 155 115 Q 157 109 151 111 Z M 196 111 L 196 118 L 199 119 L 199 128 L 202 128 L 202 134 L 205 134 L 205 141 L 209 141 L 209 134 L 213 134 L 213 128 L 216 128 L 216 119 L 219 118 L 219 111 L 215 111 L 215 117 L 212 117 L 212 127 L 208 127 L 208 133 L 206 133 L 206 127 L 203 127 L 203 118 L 200 117 L 200 111 L 196 111 Z M 222 111 Q 220 117 226 115 Q 228 109 222 111 Z M 301 111 L 301 141 L 305 141 L 305 128 L 317 128 L 317 141 L 321 141 L 321 111 L 317 112 L 317 124 L 305 124 L 305 112 L 301 111 Z M 344 111 L 344 141 L 348 141 L 348 112 L 344 111 Z M 158 114 L 158 138 L 162 138 L 162 141 L 166 141 Q 168 135 163 137 L 163 126 L 166 125 L 166 120 L 163 120 L 163 114 L 158 114 Z M 50 120 L 50 141 L 54 141 L 54 121 L 50 120 Z M 68 120 Q 70 126 65 124 L 65 138 L 68 138 L 68 141 L 78 141 Q 76 136 82 138 L 82 133 Q 75 131 77 137 L 69 137 L 69 131 L 82 131 L 82 124 Q 76 126 78 120 L 68 120 Z M 151 120 L 151 141 L 155 141 L 155 121 L 151 120 Z M 222 120 L 222 141 L 226 141 L 226 121 L 222 120 Z M 233 120 Q 235 126 229 124 L 229 138 L 233 138 L 233 141 L 243 141 Q 241 136 247 138 L 247 133 Q 240 131 242 137 L 234 137 L 234 131 L 247 131 L 247 124 Q 241 126 243 120 L 233 120 Z M 250 120 L 250 134 L 253 134 L 253 141 L 257 141 L 257 135 L 260 134 L 260 128 L 263 128 L 263 134 L 266 134 L 266 141 L 270 141 L 270 134 L 273 134 L 273 120 L 269 121 L 269 133 L 267 133 L 267 127 L 264 127 L 264 120 L 259 120 L 259 127 L 256 127 L 256 133 L 254 133 L 254 120 L 250 120 Z M 327 120 Q 329 126 324 124 L 324 138 L 327 138 L 327 141 L 338 141 Q 337 137 341 138 L 341 133 L 337 133 L 337 137 L 328 137 L 328 131 L 341 131 L 341 125 L 338 124 L 338 120 L 327 120 Z M 352 120 L 352 147 L 356 147 L 356 141 L 365 141 L 365 138 L 369 138 L 369 124 L 365 124 L 365 120 L 352 120 Z M 28 142 L 29 145 L 49 145 L 49 142 L 28 142 Z M 109 142 L 110 145 L 130 145 L 130 142 L 109 142 Z M 193 142 L 193 144 L 195 145 L 221 145 L 221 142 L 193 142 Z M 299 142 L 300 145 L 323 145 L 323 142 L 299 142 Z M 14 165 L 14 790 L 903 790 L 903 165 L 14 165 Z " /><path fill="rgb(195,185,193)" stroke="rgb(195,185,193)" stroke-width="1" opacity="1" d="M 29.5 25 L 43.5 25 L 44 27.5 L 42.5 30 Q 42 26.5 37.5 27 L 35 28 L 34.5 30 L 28 26.5 L 29.5 25 Z " /><path fill="rgb(195,185,193)" stroke="rgb(195,185,193)" stroke-width="1" opacity="1" d="M 69 25 L 92.5 25 L 93 27.5 L 90.5 29 L 86.5 27 L 82.5 29 L 78.5 27 L 75 29.5 Q 74.5 34 78 34.5 Q 75 35.8 76 40 L 73 38.5 Q 74 31.5 69 30.5 L 69 25 Z " /><path fill="rgb(195,185,193)" stroke="rgb(195,185,193)" stroke-width="1" opacity="1" d="M 117 28 L 129.5 28 L 136 32.5 L 137 35.5 L 137 68.5 L 132.5 75 L 129.5 76 L 117 76 L 117 28 Z M 121 32 L 121 72 L 122 72 L 130 72 L 132 70 L 132 35 L 130 32 L 121 32 Z " /><path fill="rgb(195,185,193)" stroke="rgb(195,185,193)" stroke-width="1" opacity="1" d="M 147.5 28 L 162.5 28 L 165 30.5 L 165 73.5 L 162.5 76 L 147.5 76 L 145 73.5 L 145 30.5 L 147.5 28 Z M 149 32 L 149 72 L 150 72 L 161 72 L 161 33 L 161 32 L 149 32 Z " /><path fill="rgb(195,185,193)" stroke="rgb(195,185,193)" stroke-width="1" opacity="1" d="M 171 28 Q 174.8 27 176 29.5 L 180 45 Q 183 46.3 182 42.5 L 187 28 L 191 28 L 191 29.5 L 183 51.5 L 192 75.5 L 187 76 L 181.5 57 L 180 58.5 L 175 76 L 170 75.5 L 179 50.5 L 171 28 Z " /><path fill="rgb(195,185,193)" stroke="rgb(195,185,193)" stroke-width="1" opacity="1" d="M 701 33 L 749 33 L 749 72 L 701 72 L 701 33 Z M 708 60 L 708 69 L 733 69 L 733 60 L 708 60 Z " /><path fill="rgb(195,185,193)" stroke="rgb(195,185,193)" stroke-width="1" opacity="1" d="M 766 33 L 769 33.5 L 769 69 L 806 69 L 806 33.5 L 806.5 33 L 813 33 L 813 72 L 766 72 L 766 33 Z " /><path fill="rgb(195,185,193)" stroke="rgb(195,185,193)" stroke-width="1" opacity="1" d="M 838 33 L 886 33 L 886 72 L 838 72 L 838 33 Z M 846 36 L 846 41 Q 852 39 850 45 L 854 45 L 854 49 L 858 49 Q 860 54 854 52 L 854 56 L 850 56 L 850 60 L 846 60 L 846 65 L 855 65 Q 853 59 859 61 L 859 57 L 866 57 Q 864 63 870 61 L 870 65 L 879 65 L 879 60 Q 873 62 875 56 L 871 56 L 871 52 L 867 52 Q 865 47 871 49 L 871 45 L 875 45 L 875 41 L 879 41 L 879 36 L 870 36 Q 872 42 866 40 L 866 44 L 859 44 Q 861 38 855 40 L 855 36 L 846 36 Z " /><path fill="rgb(195,185,193)" stroke="rgb(195,185,193)" stroke-width="1" opacity="1" d="M 774 41 L 801 41 L 801 64 L 774 64 L 774 41 Z " /><path fill="rgb(195,185,193)" stroke="rgb(195,185,193)" stroke-width="1" opacity="1" d="M 77.5 42 L 80 42.5 Q 77.9 45.8 77.5 42 Z " /><path fill="rgb(195,185,193)" stroke="rgb(195,185,193)" stroke-width="1" opacity="1" d="M 29.5 57 Q 32.8 55.9 32 58.5 L 36 61 L 38.5 65 L 55.5 65 L 56 70 L 52.5 68 L 48.5 68 Q 46.5 72 44.5 68 Q 39.5 67 38.5 70 L 28 58.5 L 29.5 57 Z " /><path fill="rgb(195,185,193)" stroke="rgb(195,185,193)" stroke-width="1" opacity="1" d="M 78.5 57 L 92.5 57 L 93 60 Q 88 58.8 86.5 62 Q 85.5 59 80.5 60 L 79 63 L 76 64.5 L 76 68.5 L 78 72 L 74.5 73 L 73 71.5 L 73 62.5 L 78.5 57 Z " /><path fill="rgb(195,185,193)" stroke="rgb(195,185,193)" stroke-width="1" opacity="1" d="M 69 125 L 76.5 125 L 77 127 L 69.5 127 L 69 125 Z " /><path fill="rgb(195,185,193)" stroke="rgb(195,185,193)" stroke-width="1" opacity="1" d="M 135 125 L 144 125 L 144 137 L 135 137 L 135 125 Z " /><path fill="rgb(195,185,193)" stroke="rgb(195,185,193)" stroke-width="1" opacity="1" d="M 234 125 L 241.5 125 L 242 127 L 234.5 127 L 234 125 Z " /><path fill="rgb(195,185,193)" stroke="rgb(195,185,193)" stroke-width="1" opacity="1" d="M 328 125 L 336.5 125 L 337 127 L 328.5 127 L 328 125 Z " /><path fill="rgb(195,185,193)" stroke="rgb(195,185,193)" stroke-width="1" opacity="1" d="M 356 125 L 364 125 L 364 137 L 356 137 L 356 125 Z " /><path fill="rgb(195,185,193)" stroke="rgb(195,185,193)" stroke-width="1" opacity="1" d="M 23 174 L 894 174 L 894 781 L 23 781 L 23 174 Z M 65 257 L 65 329 L 77 329 L 77 317 L 89 317 L 89 305 L 78 305 L 77 305 L 77 257 L 65 257 Z M 113 257 L 113 305 L 113 305 L 101 305 L 101 317 L 113 317 L 113 329 L 125 329 L 125 258 L 125 257 L 113 257 Z M 131 257 L 131 329 L 191 329 L 191 318 L 191 317 L 143 317 L 143 293 L 161 293 L 161 281 L 143 281 L 143 270 L 144 269 L 191 269 L 191 258 L 191 257 L 131 257 Z M 197 257 L 197 329 L 251 329 L 251 318 L 251 317 L 209 317 L 209 258 L 209 257 L 197 257 Z M 269 257 L 269 269 L 311 269 L 311 270 L 311 281 L 323 281 L 323 269 L 318 269 L 317 269 L 317 257 L 269 257 Z M 341 257 L 341 269 L 342 269 L 389 269 L 389 258 L 389 257 L 341 257 Z M 407 257 L 407 329 L 419 329 L 419 329 L 419 281 L 431 281 L 431 269 L 419 269 L 419 257 L 407 257 Z M 455 257 L 455 269 L 443 269 L 443 281 L 455 281 L 455 282 L 455 329 L 467 329 L 467 258 L 467 257 L 455 257 Z M 473 257 L 473 329 L 533 329 L 533 318 L 533 317 L 485 317 L 485 293 L 503 293 L 503 281 L 485 281 L 485 270 L 486 269 L 533 269 L 533 258 L 533 257 L 473 257 Z M 569 257 L 569 329 L 617 329 L 617 317 L 581 317 L 581 299 L 617 299 L 617 287 L 581 287 L 581 269 L 617 269 L 617 258 L 617 257 L 569 257 Z M 647 257 L 647 269 L 677 269 L 677 257 L 647 257 Z M 707 257 L 707 269 L 749 269 L 749 270 L 749 281 L 761 281 L 761 269 L 756 269 L 755 269 L 755 257 L 707 257 Z M 767 257 L 767 329 L 779 329 L 779 299 L 797 299 L 797 287 L 779 287 L 779 257 L 767 257 Z M 809 263 L 809 275 L 821 275 L 821 263 L 809 263 Z M 257 269 L 257 317 L 258 317 L 269 317 L 269 270 L 269 269 L 257 269 Z M 329 269 L 329 317 L 330 317 L 341 317 L 341 270 L 341 269 L 329 269 Z M 389 269 L 389 317 L 390 317 L 401 317 L 401 270 L 401 269 L 389 269 Z M 617 269 L 617 287 L 629 287 L 629 269 L 617 269 Z M 635 269 L 635 329 L 647 329 L 647 293 L 677 293 L 677 329 L 689 329 L 689 329 L 689 269 L 677 269 L 677 281 L 648 281 L 647 281 L 647 269 L 635 269 Z M 695 269 L 695 317 L 696 317 L 707 317 L 707 270 L 707 269 L 695 269 Z M 797 275 L 797 287 L 809 287 L 809 275 L 797 275 Z M 431 281 L 431 293 L 443 293 L 443 281 L 431 281 Z M 89 293 L 89 305 L 101 305 L 101 293 L 89 293 Z M 617 299 L 617 317 L 629 317 L 629 299 L 617 299 Z M 797 299 L 797 311 L 809 311 L 809 299 L 797 299 Z M 311 305 L 311 317 L 270 317 L 269 318 L 269 329 L 317 329 L 317 329 L 317 317 L 323 317 L 323 305 L 311 305 Z M 749 305 L 749 317 L 708 317 L 707 318 L 707 329 L 755 329 L 755 329 L 755 317 L 761 317 L 761 305 L 749 305 Z M 809 311 L 809 329 L 821 329 L 821 311 L 809 311 Z M 341 317 L 341 329 L 342 329 L 389 329 L 389 318 L 389 317 L 341 317 Z M 65 372 L 65 384 L 89 384 L 89 385 L 89 444 L 101 444 L 101 444 L 101 384 L 125 384 L 125 373 L 125 372 L 65 372 Z M 143 372 L 143 384 L 144 384 L 191 384 L 191 373 L 191 372 L 143 372 Z M 251 372 L 251 384 L 239 384 L 239 396 L 251 396 L 251 432 L 239 432 L 239 444 L 275 444 L 275 432 L 264 432 L 263 432 L 263 372 L 251 372 Z M 293 372 L 293 384 L 317 384 L 317 372 L 293 372 Z M 347 372 L 347 384 L 371 384 L 371 372 L 347 372 Z M 389 372 L 389 408 L 401 408 L 401 384 L 437 384 L 437 373 L 437 372 L 389 372 Z M 503 372 L 503 444 L 515 444 L 515 432 L 527 432 L 527 420 L 516 420 L 515 420 L 515 372 L 503 372 Z M 551 372 L 551 420 L 551 420 L 539 420 L 539 432 L 551 432 L 551 444 L 563 444 L 563 373 L 563 372 L 551 372 Z M 569 372 L 569 444 L 581 444 L 581 414 L 617 414 L 617 444 L 629 444 L 629 444 L 629 372 L 617 372 L 617 402 L 581 402 L 581 372 L 569 372 Z M 635 372 L 635 444 L 695 444 L 695 433 L 695 432 L 647 432 L 647 408 L 665 408 L 665 396 L 647 396 L 647 385 L 648 384 L 695 384 L 695 373 L 695 372 L 635 372 Z M 701 372 L 701 444 L 713 444 L 713 408 L 737 408 L 737 420 L 749 420 L 749 408 L 755 408 L 755 397 L 755 396 L 713 396 L 713 385 L 714 384 L 755 384 L 755 373 L 755 372 L 701 372 Z M 779 372 L 779 444 L 839 444 L 839 433 L 839 432 L 791 432 L 791 408 L 809 408 L 809 396 L 791 396 L 791 385 L 792 384 L 839 384 L 839 373 L 839 372 L 779 372 Z M 131 384 L 131 432 L 132 432 L 143 432 L 143 385 L 143 384 L 131 384 Z M 191 384 L 191 432 L 192 432 L 203 432 L 203 385 L 203 384 L 191 384 Z M 281 384 L 281 408 L 293 408 L 293 384 L 281 384 Z M 317 384 L 317 408 L 293 408 L 293 420 L 317 420 L 317 432 L 329 432 L 329 385 L 329 384 L 317 384 Z M 335 384 L 335 408 L 347 408 L 347 384 L 335 384 Z M 371 384 L 371 408 L 347 408 L 347 420 L 371 420 L 371 432 L 383 432 L 383 385 L 383 384 L 371 384 Z M 755 384 L 755 396 L 767 396 L 767 384 L 755 384 Z M 401 408 L 401 420 L 437 420 L 437 408 L 401 408 Z M 527 408 L 527 420 L 539 420 L 539 408 L 527 408 Z M 389 420 L 389 432 L 395 432 L 395 420 L 389 420 Z M 437 420 L 437 432 L 449 432 L 449 420 L 437 420 Z M 749 420 L 749 432 L 761 432 L 761 420 L 749 420 Z M 143 432 L 143 444 L 144 444 L 191 444 L 191 433 L 191 432 L 143 432 Z M 293 432 L 293 444 L 317 444 L 317 432 L 293 432 Z M 347 432 L 347 444 L 371 444 L 371 432 L 347 432 Z M 395 432 L 395 444 L 396 444 L 437 444 L 437 433 L 437 432 L 395 432 Z M 455 432 L 455 444 L 461 444 L 461 450 L 467 450 L 467 432 L 455 432 Z M 761 432 L 761 444 L 773 444 L 773 432 L 761 432 Z M 455 450 L 455 456 L 461 456 L 461 450 L 455 450 Z M 65 487 L 65 517 L 77 517 L 77 487 L 65 487 Z M 113 487 L 113 517 L 125 517 L 125 487 L 113 487 Z M 137 487 L 137 499 L 143 499 L 143 547 L 143 547 L 137 547 L 137 559 L 161 559 L 161 547 L 155 547 L 155 500 L 156 499 L 161 499 L 161 487 L 137 487 Z M 167 487 L 167 559 L 179 559 L 179 523 L 203 523 L 203 535 L 215 535 L 215 523 L 221 523 L 221 512 L 221 511 L 179 511 L 179 500 L 180 499 L 221 499 L 221 488 L 221 487 L 167 487 Z M 245 487 L 245 499 L 269 499 L 269 500 L 269 559 L 281 559 L 281 559 L 281 499 L 305 499 L 305 488 L 305 487 L 245 487 Z M 317 487 L 317 547 L 318 547 L 329 547 L 329 488 L 329 487 L 317 487 Z M 359 487 L 359 547 L 360 547 L 371 547 L 371 488 L 371 487 L 359 487 Z M 389 487 L 389 499 L 419 499 L 419 487 L 389 487 Z M 437 487 L 437 559 L 491 559 L 491 548 L 491 547 L 449 547 L 449 488 L 449 487 L 437 487 Z M 527 487 L 527 559 L 575 559 L 575 547 L 539 547 L 539 499 L 575 499 L 575 488 L 575 487 L 527 487 Z M 605 487 L 605 499 L 606 499 L 653 499 L 653 488 L 653 487 L 605 487 Z M 683 487 L 683 499 L 684 499 L 737 499 L 737 488 L 737 487 L 683 487 Z M 221 499 L 221 511 L 233 511 L 233 499 L 221 499 Z M 377 499 L 377 559 L 389 559 L 389 523 L 419 523 L 419 559 L 431 559 L 431 559 L 431 499 L 419 499 L 419 511 L 390 511 L 389 511 L 389 499 L 377 499 Z M 575 499 L 575 547 L 576 547 L 587 547 L 587 500 L 587 499 L 575 499 Z M 593 499 L 593 547 L 594 547 L 605 547 L 605 500 L 605 499 L 593 499 Z M 653 499 L 653 547 L 654 547 L 665 547 L 665 500 L 665 499 L 653 499 Z M 671 499 L 671 547 L 672 547 L 683 547 L 683 500 L 683 499 L 671 499 Z M 713 511 L 713 523 L 725 523 L 725 547 L 737 547 L 737 511 L 713 511 Z M 77 517 L 77 535 L 89 535 L 89 517 L 77 517 Z M 101 517 L 101 535 L 113 535 L 113 517 L 101 517 Z M 89 535 L 89 559 L 101 559 L 101 535 L 89 535 Z M 215 535 L 215 547 L 227 547 L 227 535 L 215 535 Z M 227 547 L 227 559 L 239 559 L 239 547 L 227 547 Z M 329 547 L 329 559 L 359 559 L 359 547 L 329 547 Z M 605 547 L 605 559 L 606 559 L 653 559 L 653 548 L 653 547 L 605 547 Z M 683 547 L 683 559 L 684 559 L 725 559 L 725 548 L 725 547 L 683 547 Z M 77 603 L 77 615 L 119 615 L 119 616 L 119 627 L 131 627 L 131 615 L 126 615 L 125 615 L 125 603 L 77 603 Z M 149 603 L 149 615 L 150 615 L 197 615 L 197 604 L 197 603 L 149 603 Z M 215 603 L 215 675 L 227 675 L 227 675 L 227 627 L 239 627 L 239 615 L 227 615 L 227 603 L 215 603 Z M 263 603 L 263 615 L 251 615 L 251 627 L 263 627 L 263 628 L 263 675 L 275 675 L 275 604 L 275 603 L 263 603 Z M 281 603 L 281 675 L 341 675 L 341 664 L 341 663 L 293 663 L 293 639 L 311 639 L 311 627 L 293 627 L 293 616 L 294 615 L 341 615 L 341 604 L 341 603 L 281 603 Z M 389 603 L 389 615 L 419 615 L 419 603 L 389 603 Z M 437 603 L 437 675 L 491 675 L 491 664 L 491 663 L 449 663 L 449 604 L 449 603 L 437 603 Z M 503 603 L 503 615 L 509 615 L 509 663 L 509 663 L 503 663 L 503 675 L 527 675 L 527 663 L 521 663 L 521 616 L 522 615 L 527 615 L 527 603 L 503 603 Z M 533 603 L 533 633 L 545 633 L 545 603 L 533 603 Z M 581 603 L 581 633 L 593 633 L 593 603 L 581 603 Z M 599 603 L 599 675 L 659 675 L 659 664 L 659 663 L 611 663 L 611 639 L 629 639 L 629 627 L 611 627 L 611 616 L 612 615 L 659 615 L 659 604 L 659 603 L 599 603 Z M 65 615 L 65 663 L 66 663 L 77 663 L 77 616 L 77 615 L 65 615 Z M 137 615 L 137 663 L 138 663 L 149 663 L 149 616 L 149 615 L 137 615 Z M 197 615 L 197 663 L 198 663 L 209 663 L 209 616 L 209 615 L 197 615 Z M 377 615 L 377 675 L 389 675 L 389 639 L 419 639 L 419 675 L 431 675 L 431 675 L 431 615 L 419 615 L 419 627 L 390 627 L 389 627 L 389 615 L 377 615 Z M 239 627 L 239 639 L 251 639 L 251 627 L 239 627 Z M 545 633 L 545 651 L 557 651 L 557 633 L 545 633 Z M 569 633 L 569 651 L 581 651 L 581 633 L 569 633 Z M 119 651 L 119 663 L 119 663 L 77 663 L 77 675 L 125 675 L 125 675 L 125 663 L 131 663 L 131 651 L 119 651 Z M 557 651 L 557 675 L 569 675 L 569 651 L 557 651 Z M 149 663 L 149 675 L 150 675 L 197 675 L 197 664 L 197 663 L 149 663 Z M 665 663 L 665 675 L 677 675 L 677 663 L 665 663 Z " /><path fill="rgb(0,0,0)" stroke="rgb(0,0,0)" stroke-width="1" opacity="1" d="M 0 0 L 922 0 L 922 809 L 0 809 L 0 0 Z M 8 8 L 8 801 L 914 801 L 914 8 L 8 8 Z " /><path fill="rgb(0,0,0)" stroke="rgb(0,0,0)" stroke-width="1" opacity="1" d="M 61 24 L 64 24.5 L 64 52 L 28.5 52 L 28 49.5 L 29.5 48 L 56 48 L 57 41.5 L 53 40 Q 54.8 33.9 51.5 32 Q 48.2 33.1 49 30.5 L 48 26.5 L 52 25 L 53 32 L 57 34.5 L 57 40 L 59.5 40 L 61 38.5 L 61 24 Z " /><path fill="rgb(0,0,0)" stroke="rgb(0,0,0)" stroke-width="1" opacity="1" d="M 692 24 L 822 24 L 822 81 L 692 81 L 692 24 Z M 700 32 L 700 73 L 750 73 L 750 32 L 700 32 Z M 765 32 L 765 73 L 814 73 L 814 33 L 814 32 L 806 32 L 806 34 Q 808 40 805 42 L 805 64 L 806 69 L 769 69 L 769 33 L 765 32 Z M 774 32 L 774 33 L 801 33 L 774 32 Z M 773 40 L 773 65 L 802 65 L 802 42 L 801 40 L 773 40 Z " /><path fill="rgb(0,0,0)" stroke="rgb(0,0,0)" stroke-width="1" opacity="1" d="M 829 24 L 895 24 L 895 81 L 829 81 L 829 24 Z M 837 32 L 837 73 L 887 73 L 887 32 L 837 32 Z " /><path fill="rgb(0,0,0)" stroke="rgb(0,0,0)" stroke-width="1" opacity="1" d="M 846 37 L 854 37 L 854 41 Q 860 39 858 45 L 866 45 L 866 41 Q 872 43 870 37 L 878 37 Q 879.7 41.1 875.5 40 L 874 44 L 870 45.5 Q 871.3 49.3 867.5 48 Q 865 49.2 866 53 L 870 53 L 870 57 L 874 57 L 874 61 Q 880 59 878 65 L 871.5 65 L 870 63.5 Q 871.3 59.8 867.5 61 L 866 57 L 858 57 L 858 61 Q 852 59 854 65 L 846 65 L 846 61 L 850 61 L 850 57 L 854 57 Q 852 51 858 53 L 858 48 L 854 48 L 854 44 L 850 44 L 850 40 Q 844.4 41.9 846 37 Z " /><path fill="rgb(0,0,0)" stroke="rgb(0,0,0)" stroke-width="1" opacity="1" d="M 79.5 48 L 91.5 48 L 93 49.5 L 92.5 52 L 77 52 L 79.5 48 Z " /><path fill="rgb(0,0,0)" stroke="rgb(0,0,0)" stroke-width="1" opacity="1" d="M 709 61 L 733 61 L 733 69 L 709 69 L 709 61 Z " /><path fill="rgb(0,0,0)" stroke="rgb(0,0,0)" stroke-width="1" opacity="1" d="M 61 65 L 64 65.5 L 64 77 L 61 76.5 L 61 65 Z " /><path fill="rgb(0,0,0)" stroke="rgb(0,0,0)" stroke-width="1" opacity="1" d="M 31.5 111 L 45.5 111 L 46 114 L 34.5 114 L 33 115.5 L 33 124 L 42.5 124 L 43 127 L 34.5 127 L 33 128.5 L 33 139.5 L 30 140 L 30 112.5 L 31.5 111 Z " /><path fill="rgb(0,0,0)" stroke="rgb(0,0,0)" stroke-width="1" opacity="1" d="M 51 111 L 54 112.5 Q 54.7 115.5 51 114 L 51 111 Z " /><path fill="rgb(0,0,0)" stroke="rgb(0,0,0)" stroke-width="1" opacity="1" d="M 58 111 L 61 111.5 L 61 140 L 58 139.5 L 58 111 Z " /><path fill="rgb(0,0,0)" stroke="rgb(0,0,0)" stroke-width="1" opacity="1" d="M 112.5 111 L 126.5 111 L 127 114 L 114 114 L 114 124 L 123.5 124 L 124 127 L 114 127 L 114 137 L 126.5 137 L 127 140 L 111 140 L 111 112.5 L 112.5 111 Z " /><path fill="rgb(0,0,0)" stroke="rgb(0,0,0)" stroke-width="1" opacity="1" d="M 145.5 111 L 147 111.5 L 147 140 L 135.5 140 L 135 137 L 144 137 L 144 124 L 135 124 L 135 121 L 144 121 L 144 112.5 L 145.5 111 Z " /><path fill="rgb(0,0,0)" stroke="rgb(0,0,0)" stroke-width="1" opacity="1" d="M 152 111 L 155 112.5 Q 155.7 115.5 152 114 L 152 111 Z " /><path fill="rgb(0,0,0)" stroke="rgb(0,0,0)" stroke-width="1" opacity="1" d="M 196 111 L 199 111 L 199 118 L 202 118 L 202 127 L 199 127 L 199 118.5 L 196 118 L 196 111 Z " /><path fill="rgb(0,0,0)" stroke="rgb(0,0,0)" stroke-width="1" opacity="1" d="M 216 111 L 218 111.5 L 218 118 L 216 117.5 L 216 111 Z " /><path fill="rgb(0,0,0)" stroke="rgb(0,0,0)" stroke-width="1" opacity="1" d="M 223 111 L 226 112.5 Q 226.7 115.5 223 114 L 223 111 Z " /><path fill="rgb(0,0,0)" stroke="rgb(0,0,0)" stroke-width="1" opacity="1" d="M 301 111 L 304 111.5 L 304 124 L 317 124 L 317 112.5 L 318.5 111 L 320 111.5 L 320 140 L 317 139.5 L 317 127 L 304 127 L 304 139.5 L 301 140 L 301 111 Z " /><path fill="rgb(0,0,0)" stroke="rgb(0,0,0)" stroke-width="1" opacity="1" d="M 345 111 L 348 111.5 L 348 140 L 345 139.5 L 345 111 Z " /><path fill="rgb(0,0,0)" stroke="rgb(0,0,0)" stroke-width="1" opacity="1" d="M 159 115 L 162 115 L 162 121 Q 166.5 119.5 165 124 L 162 124.5 L 162 137 Q 166.5 135.5 165 140 L 162 140 L 162 137 L 159 136.5 L 159 115 Z " /><path fill="rgb(0,0,0)" stroke="rgb(0,0,0)" stroke-width="1" opacity="1" d="M 212 118 L 215 118 L 215 127 L 212 127 L 212 118 Z " /><path fill="rgb(0,0,0)" stroke="rgb(0,0,0)" stroke-width="1" opacity="1" d="M 51 121 L 54 121.5 L 54 140 L 51 139.5 L 51 121 Z " /><path fill="rgb(0,0,0)" stroke="rgb(0,0,0)" stroke-width="1" opacity="1" d="M 68 121 L 78 121 Q 76.5 125.5 81 124 L 81 130 L 69.5 130 L 68 131.5 L 68 137 L 78 137 Q 76.5 132.5 81 134 L 81 137 Q 76.5 135.5 78 140 L 68 140 L 68 137 L 65 136.5 L 65 124 Q 69.5 125.5 68 121 Z M 68 124 L 68 127 L 70 128 L 78 128 L 78 124 L 68 124 Z " /><path fill="rgb(0,0,0)" stroke="rgb(0,0,0)" stroke-width="1" opacity="1" d="M 152 121 L 155 121.5 L 155 140 L 152 139.5 L 152 121 Z " /><path fill="rgb(0,0,0)" stroke="rgb(0,0,0)" stroke-width="1" opacity="1" d="M 223 121 L 226 121.5 L 226 140 L 223 139.5 L 223 121 Z " /><path fill="rgb(0,0,0)" stroke="rgb(0,0,0)" stroke-width="1" opacity="1" d="M 233 121 L 243 121 Q 241.5 125.5 246 124 L 246 130 L 234.5 130 L 233 131.5 L 233 137 L 243 137 Q 241.5 132.5 246 134 L 246 137 Q 241.5 135.5 243 140 L 233 140 L 233 137 L 230 136.5 L 230 124 Q 234.5 125.5 233 121 Z M 233 124 L 233 128 L 243 128 L 243 124 L 233 124 Z " /><path fill="rgb(0,0,0)" stroke="rgb(0,0,0)" stroke-width="1" opacity="1" d="M 250 121 L 253 121.5 L 253 134 L 250 133.5 L 250 121 Z " /><path fill="rgb(0,0,0)" stroke="rgb(0,0,0)" stroke-width="1" opacity="1" d="M 260 121 L 263 121 L 263 127 L 260 127 L 260 121 Z " /><path fill="rgb(0,0,0)" stroke="rgb(0,0,0)" stroke-width="1" opacity="1" d="M 270 121 L 273 121.5 L 273 132.5 L 270 134 L 270 121 Z " /><path fill="rgb(0,0,0)" stroke="rgb(0,0,0)" stroke-width="1" opacity="1" d="M 328 121 L 337 121 L 337 124 L 328 124 L 328 121 Z " /><path fill="rgb(0,0,0)" stroke="rgb(0,0,0)" stroke-width="1" opacity="1" d="M 352 121 L 365 121 L 365 124 L 368 124.5 L 368 137 L 365 137 L 364.5 140 L 355 140 L 355 147 L 352 147 L 352 121 Z M 355 124 L 355 137 L 365 137 L 365 124 L 355 124 Z " /><path fill="rgb(0,0,0)" stroke="rgb(0,0,0)" stroke-width="1" opacity="1" d="M 132 124 L 134 124.5 L 134 137 L 132 136.5 L 132 124 Z " /><path fill="rgb(0,0,0)" stroke="rgb(0,0,0)" stroke-width="1" opacity="1" d="M 325 124 L 328 125.5 L 328.5 128 L 336.5 128 L 338 124 L 340 124 L 340 130 L 328 130 L 328 137 L 337 137 L 337 140 L 328.5 140 L 328 137 L 325 137 L 325 124 Z " /><path fill="rgb(0,0,0)" stroke="rgb(0,0,0)" stroke-width="1" opacity="1" d="M 203 128 Q 207.9 126.2 206 132.5 L 203 134 L 203 128 Z " /><path fill="rgb(0,0,0)" stroke="rgb(0,0,0)" stroke-width="1" opacity="1" d="M 209 128 L 212 128 L 212 134 L 209 134 L 209 140 L 206 140 L 206 134.5 L 209 134 L 209 128 Z " /><path fill="rgb(0,0,0)" stroke="rgb(0,0,0)" stroke-width="1" opacity="1" d="M 257 128 L 260 128 L 260 134 L 257 134 L 257 128 Z " /><path fill="rgb(0,0,0)" stroke="rgb(0,0,0)" stroke-width="1" opacity="1" d="M 263 128 L 266 128 L 266 133.5 L 269 134 L 269 140 L 266 140 L 266 134.5 L 263 134 L 263 128 Z " /><path fill="rgb(0,0,0)" stroke="rgb(0,0,0)" stroke-width="1" opacity="1" d="M 254 134 L 256 134 L 256 140 L 254 140 L 254 134 Z " /><path fill="rgb(0,0,0)" stroke="rgb(0,0,0)" stroke-width="1" opacity="1" d="M 338 134 Q 341.3 132.9 340 137 Q 336.7 138.1 338 134 Z " /><path fill="rgb(0,0,0)" stroke="rgb(0,0,0)" stroke-width="1" opacity="1" d="M 29.5 142 L 47.5 142 L 48 144 L 28 143.5 L 29.5 142 Z " /><path fill="rgb(0,0,0)" stroke="rgb(0,0,0)" stroke-width="1" opacity="1" d="M 110.5 142 L 128.5 142 L 129 144 L 109 143.5 L 110.5 142 Z " /><path fill="rgb(0,0,0)" stroke="rgb(0,0,0)" stroke-width="1" opacity="1" d="M 194 142 L 219.5 142 L 221 143.5 L 194 144 L 194 142 Z " /><path fill="rgb(0,0,0)" stroke="rgb(0,0,0)" stroke-width="1" opacity="1" d="M 299 142 L 321.5 142 L 322 144 L 299.5 144 L 299 142 Z " /><path fill="rgb(0,0,0)" stroke="rgb(0,0,0)" stroke-width="1" opacity="1" d="M 14 165 L 903 165 L 903 790 L 14 790 L 14 165 Z M 22 173 L 22 782 L 895 782 L 895 173 L 22 173 Z " /><path fill="rgb(0,0,0)" stroke="rgb(0,0,0)" stroke-width="1" opacity="1" d="M 65 257 L 77 257 L 77 304.5 L 77.5 305 L 89 305 L 89 293 L 101 293 L 101 305 L 113 305 L 113 257.5 L 113.5 257 L 125 257 L 125 328.5 L 124.5 329 L 113 329 L 113 317 L 101 317 L 101 305 L 89 305 L 89 317 L 77 317 L 77 329 L 65 329 L 65 257 Z " /><path fill="rgb(0,0,0)" stroke="rgb(0,0,0)" stroke-width="1" opacity="1" d="M 131 257 L 190.5 257 L 191 257.5 L 191 269 L 143.5 269 L 143 269.5 L 143 281 L 161 281 L 161 293 L 143 293 L 143 317 L 190.5 317 L 191 317.5 L 191 329 L 131 329 L 131 257 Z " /><path fill="rgb(0,0,0)" stroke="rgb(0,0,0)" stroke-width="1" opacity="1" d="M 197 257 L 208.5 257 L 209 257.5 L 209 317 L 250.5 317 L 251 317.5 L 251 329 L 197 329 L 197 257 Z " /><path fill="rgb(0,0,0)" stroke="rgb(0,0,0)" stroke-width="1" opacity="1" d="M 269 257 L 317 257 L 317 268.5 L 317.5 269 L 323 269 L 323 281 L 311 281 L 311 269.5 L 310.5 269 L 269 269 L 269 317 L 311 317 L 311 305 L 323 305 L 323 316.5 L 322.5 317 L 317 317 L 317 329 L 269 329 L 269 317 L 257.5 317 L 257 316.5 L 257 269 L 269 269 L 269 257 Z " /><path fill="rgb(0,0,0)" stroke="rgb(0,0,0)" stroke-width="1" opacity="1" d="M 341 257 L 389 257 L 389 269 L 400.5 269 L 401 269.5 L 401 317 L 389 317 L 389 328.5 L 388.5 329 L 341 329 L 341 317 L 329.5 317 L 329 316.5 L 329 269 L 341 269 L 341 257 Z M 341 269 L 341 317 L 389 317 L 389 269 L 341 269 Z " /><path fill="rgb(0,0,0)" stroke="rgb(0,0,0)" stroke-width="1" opacity="1" d="M 407 257 L 419 257 L 419 269 L 431 269 L 431 281 L 443 281 L 443 269 L 455 269 L 455 257 L 467 257 L 467 328.5 L 466.5 329 L 455 329 L 455 281.5 L 454.5 281 L 443 281 L 443 293 L 431 293 L 431 281 L 419 281 L 419 328.5 L 418.5 329 L 407 329 L 407 257 Z " /><path fill="rgb(0,0,0)" stroke="rgb(0,0,0)" stroke-width="1" opacity="1" d="M 473 257 L 532.5 257 L 533 257.5 L 533 269 L 485.5 269 L 485 269.5 L 485 281 L 503 281 L 503 293 L 485 293 L 485 317 L 532.5 317 L 533 317.5 L 533 329 L 473 329 L 473 257 Z " /><path fill="rgb(0,0,0)" stroke="rgb(0,0,0)" stroke-width="1" opacity="1" d="M 569 257 L 617 257 L 617 269 L 629 269 L 629 287 L 617 287 L 617 299 L 629 299 L 629 317 L 617 317 L 617 328.5 L 616.5 329 L 569 329 L 569 257 Z M 581 269 L 581 287 L 617 287 L 617 269 L 581 269 Z M 581 299 L 581 317 L 617 317 L 617 299 L 581 299 Z " /><path fill="rgb(0,0,0)" stroke="rgb(0,0,0)" stroke-width="1" opacity="1" d="M 647 257 L 676.5 257 L 677 257.5 L 677 269 L 689 269 L 689 329 L 677 329 L 677 293 L 647 293 L 647 329 L 635 329 L 635 269.5 L 635.5 269 L 647 269 L 647 257 Z M 647 269 L 647 281 L 677 281 L 677 269 L 647 269 Z " /><path fill="rgb(0,0,0)" stroke="rgb(0,0,0)" stroke-width="1" opacity="1" d="M 707 257 L 755 257 L 755 268.5 L 755.5 269 L 761 269 L 761 281 L 749 281 L 749 269.5 L 748.5 269 L 707 269 L 707 317 L 749 317 L 749 305 L 761 305 L 761 316.5 L 760.5 317 L 755 317 L 755 329 L 707 329 L 707 317 L 695.5 317 L 695 316.5 L 695 269 L 707 269 L 707 257 Z " /><path fill="rgb(0,0,0)" stroke="rgb(0,0,0)" stroke-width="1" opacity="1" d="M 767 257 L 779 257 L 779 287 L 797 287 L 797 275 L 809 275 L 809 263 L 821 263 L 821 275 L 809 275 L 809 287 L 797 287 L 797 299 L 809 299 L 809 311 L 821 311 L 821 329 L 809 329 L 809 311 L 797 311 L 797 299 L 779 299 L 779 329 L 767 329 L 767 257 Z " /><path fill="rgb(0,0,0)" stroke="rgb(0,0,0)" stroke-width="1" opacity="1" d="M 65 372 L 124.5 372 L 125 372.5 L 125 384 L 101 384 L 101 443.5 L 100.5 444 L 89 444 L 89 384.5 L 88.5 384 L 65 384 L 65 372 Z " /><path fill="rgb(0,0,0)" stroke="rgb(0,0,0)" stroke-width="1" opacity="1" d="M 143 372 L 190.5 372 L 191 372.5 L 191 384 L 203 384 L 203 432 L 191 432 L 191 443.5 L 190.5 444 L 143 444 L 143 432 L 131.5 432 L 131 431.5 L 131 384 L 143 384 L 143 372 Z M 143 384 L 143 432 L 191 432 L 191 384 L 143 384 Z " /><path fill="rgb(0,0,0)" stroke="rgb(0,0,0)" stroke-width="1" opacity="1" d="M 251 372 L 263 372 L 263 431.5 L 263.5 432 L 275 432 L 275 444 L 239 444 L 239 432 L 251 432 L 251 396 L 239 396 L 239 384 L 251 384 L 251 372 Z " /><path fill="rgb(0,0,0)" stroke="rgb(0,0,0)" stroke-width="1" opacity="1" d="M 293 372 L 317 372 L 317 384 L 329 384 L 329 432 L 317 432 L 317 444 L 293 444 L 293 432 L 317 432 L 317 420 L 293 420 L 293 408 L 281 408 L 281 384 L 293 384 L 293 372 Z M 293 384 L 293 408 L 317 408 L 317 384 L 293 384 Z " /><path fill="rgb(0,0,0)" stroke="rgb(0,0,0)" stroke-width="1" opacity="1" d="M 347 372 L 371 372 L 371 384 L 383 384 L 383 432 L 371 432 L 371 444 L 347 444 L 347 432 L 371 432 L 371 420 L 347 420 L 347 408 L 335 408 L 335 384 L 347 384 L 347 372 Z M 347 384 L 347 408 L 371 408 L 371 384 L 347 384 Z " /><path fill="rgb(0,0,0)" stroke="rgb(0,0,0)" stroke-width="1" opacity="1" d="M 389 372 L 436.5 372 L 437 372.5 L 437 384 L 401 384 L 401 408 L 437 408 L 437 420 L 449 420 L 449 432 L 437 432 L 437 443.5 L 436.5 444 L 395 444 L 395 432.5 L 394.5 432 L 389 432 L 389 420 L 395 420 L 395 431.5 L 395.5 432 L 437 432 L 437 420 L 401.5 420 L 401 419.5 L 401 408 L 389 408 L 389 372 Z " /><path fill="rgb(0,0,0)" stroke="rgb(0,0,0)" stroke-width="1" opacity="1" d="M 503 372 L 514.5 372 L 515 372.5 L 515 420 L 527 420 L 527 408 L 539 408 L 539 420 L 551 420 L 551 372.5 L 551.5 372 L 563 372 L 563 443.5 L 562.5 444 L 551 444 L 551 432 L 539 432 L 539 420 L 527 420 L 527 432 L 515 432 L 515 444 L 503 444 L 503 372 Z " /><path fill="rgb(0,0,0)" stroke="rgb(0,0,0)" stroke-width="1" opacity="1" d="M 569 372 L 581 372 L 581 402 L 617 402 L 617 372 L 629 372 L 629 443.5 L 628.5 444 L 617 444 L 617 414 L 581 414 L 581 444 L 569 444 L 569 372 Z " /><path fill="rgb(0,0,0)" stroke="rgb(0,0,0)" stroke-width="1" opacity="1" d="M 635 372 L 694.5 372 L 695 372.5 L 695 384 L 647.5 384 L 647 384.5 L 647 396 L 665 396 L 665 408 L 647 408 L 647 432 L 694.5 432 L 695 432.5 L 695 444 L 635 444 L 635 372 Z " /><path fill="rgb(0,0,0)" stroke="rgb(0,0,0)" stroke-width="1" opacity="1" d="M 701 372 L 755 372 L 755 384 L 767 384 L 767 396 L 755 396 L 755 407.5 L 754.5 408 L 749 408 L 749 420 L 761 420 L 761 432 L 773 432 L 773 444 L 761 444 L 761 432 L 749 432 L 749 420 L 737 420 L 737 408 L 713 408 L 713 444 L 701 444 L 701 372 Z M 713 384 L 713 396 L 714 396 L 755 396 L 755 385 L 755 384 L 713 384 Z " /><path fill="rgb(0,0,0)" stroke="rgb(0,0,0)" stroke-width="1" opacity="1" d="M 779 372 L 838.5 372 L 839 372.5 L 839 384 L 791.5 384 L 791 384.5 L 791 396 L 809 396 L 809 408 L 791 408 L 791 432 L 838.5 432 L 839 432.5 L 839 444 L 779 444 L 779 372 Z " /><path fill="rgb(0,0,0)" stroke="rgb(0,0,0)" stroke-width="1" opacity="1" d="M 455 432 L 467 432 L 467 450 L 461 450 L 461 456 L 455 456 L 455 450 L 461 450 L 461 444 L 455 444 L 455 432 Z " /><path fill="rgb(0,0,0)" stroke="rgb(0,0,0)" stroke-width="1" opacity="1" d="M 65 487 L 77 487 L 77 516.5 L 77.5 517 L 89 517 L 89 535 L 101 535 L 101 517 L 112.5 517 L 113 516.5 L 113 487 L 125 487 L 125 517 L 113 517 L 113 535 L 101.5 535 L 101 535.5 L 101 559 L 89 559 L 89 535 L 77 535 L 77 517 L 65 517 L 65 487 Z " /><path fill="rgb(0,0,0)" stroke="rgb(0,0,0)" stroke-width="1" opacity="1" d="M 137 487 L 161 487 L 161 499 L 155.5 499 L 155 499.5 L 155 547 L 161 547 L 161 559 L 137 559 L 137 547 L 142.5 547 L 143 546.5 L 143 499 L 137 499 L 137 487 Z " /><path fill="rgb(0,0,0)" stroke="rgb(0,0,0)" stroke-width="1" opacity="1" d="M 167 487 L 221 487 L 221 499 L 233 499 L 233 511 L 221 511 L 221 522.5 L 220.5 523 L 215 523 L 215 535 L 227 535 L 227 547 L 239 547 L 239 559 L 227 559 L 227 547 L 215 547 L 215 535 L 203 535 L 203 523 L 179 523 L 179 559 L 167 559 L 167 487 Z M 179 499 L 179 511 L 180 511 L 221 511 L 221 500 L 221 499 L 179 499 Z " /><path fill="rgb(0,0,0)" stroke="rgb(0,0,0)" stroke-width="1" opacity="1" d="M 245 487 L 304.5 487 L 305 487.5 L 305 499 L 281 499 L 281 558.5 L 280.5 559 L 269 559 L 269 499.5 L 268.5 499 L 245 499 L 245 487 Z " /><path fill="rgb(0,0,0)" stroke="rgb(0,0,0)" stroke-width="1" opacity="1" d="M 317 487 L 328.5 487 L 329 487.5 L 329 547 L 359 547 L 359 487.5 L 359.5 487 L 371 487 L 371 547 L 359 547 L 359 558.5 L 358.5 559 L 329 559 L 329 547 L 317.5 547 L 317 546.5 L 317 487 Z " /><path fill="rgb(0,0,0)" stroke="rgb(0,0,0)" stroke-width="1" opacity="1" d="M 389 487 L 418.5 487 L 419 487.5 L 419 499 L 431 499 L 431 559 L 419 559 L 419 523 L 389 523 L 389 559 L 377 559 L 377 499.5 L 377.5 499 L 389 499 L 389 487 Z M 389 499 L 389 511 L 419 511 L 419 499 L 389 499 Z " /><path fill="rgb(0,0,0)" stroke="rgb(0,0,0)" stroke-width="1" opacity="1" d="M 437 487 L 448.5 487 L 449 487.5 L 449 547 L 490.5 547 L 491 547.5 L 491 559 L 437 559 L 437 487 Z " /><path fill="rgb(0,0,0)" stroke="rgb(0,0,0)" stroke-width="1" opacity="1" d="M 527 487 L 574.5 487 L 575 487.5 L 575 499 L 587 499 L 587 547 L 575 547 L 575 558.5 L 574.5 559 L 527 559 L 527 487 Z M 539 499 L 539 547 L 575 547 L 575 499 L 539 499 Z " /><path fill="rgb(0,0,0)" stroke="rgb(0,0,0)" stroke-width="1" opacity="1" d="M 605 487 L 652.5 487 L 653 487.5 L 653 499 L 665 499 L 665 547 L 653 547 L 653 558.5 L 652.5 559 L 605 559 L 605 547 L 593.5 547 L 593 546.5 L 593 499 L 605 499 L 605 487 Z M 605 499 L 605 547 L 653 547 L 653 499 L 605 499 Z " /><path fill="rgb(0,0,0)" stroke="rgb(0,0,0)" stroke-width="1" opacity="1" d="M 683 487 L 736.5 487 L 737 487.5 L 737 499 L 683 499 L 683 547 L 725 547 L 725 523 L 713 523 L 713 511 L 737 511 L 737 547 L 725 547 L 725 558.5 L 724.5 559 L 683 559 L 683 547 L 671.5 547 L 671 546.5 L 671 499 L 683 499 L 683 487 Z " /><path fill="rgb(0,0,0)" stroke="rgb(0,0,0)" stroke-width="1" opacity="1" d="M 77 603 L 125 603 L 125 614.5 L 125.5 615 L 131 615 L 131 627 L 119 627 L 119 615.5 L 118.5 615 L 77 615 L 77 663 L 119 663 L 119 651 L 131 651 L 131 662.5 L 130.5 663 L 125 663 L 125 675 L 77 675 L 77 663 L 65.5 663 L 65 662.5 L 65 615 L 77 615 L 77 603 Z " /><path fill="rgb(0,0,0)" stroke="rgb(0,0,0)" stroke-width="1" opacity="1" d="M 149 603 L 197 603 L 197 615 L 208.5 615 L 209 615.5 L 209 663 L 197 663 L 197 674.5 L 196.5 675 L 149 675 L 149 663 L 137.5 663 L 137 662.5 L 137 615 L 149 615 L 149 603 Z M 149 615 L 149 663 L 197 663 L 197 615 L 149 615 Z " /><path fill="rgb(0,0,0)" stroke="rgb(0,0,0)" stroke-width="1" opacity="1" d="M 215 603 L 227 603 L 227 615 L 239 615 L 239 627 L 251 627 L 251 615 L 263 615 L 263 603 L 275 603 L 275 674.5 L 274.5 675 L 263 675 L 263 627.5 L 262.5 627 L 251 627 L 251 639 L 239 639 L 239 627 L 227 627 L 227 674.5 L 226.5 675 L 215 675 L 215 603 Z " /><path fill="rgb(0,0,0)" stroke="rgb(0,0,0)" stroke-width="1" opacity="1" d="M 281 603 L 340.5 603 L 341 603.5 L 341 615 L 293.5 615 L 293 615.5 L 293 627 L 311 627 L 311 639 L 293 639 L 293 663 L 340.5 663 L 341 663.5 L 341 675 L 281 675 L 281 603 Z " /><path fill="rgb(0,0,0)" stroke="rgb(0,0,0)" stroke-width="1" opacity="1" d="M 389 603 L 418.5 603 L 419 603.5 L 419 615 L 431 615 L 431 675 L 419 675 L 419 639 L 389 639 L 389 675 L 377 675 L 377 615.5 L 377.5 615 L 389 615 L 389 603 Z M 389 615 L 389 627 L 419 627 L 419 615 L 389 615 Z " /><path fill="rgb(0,0,0)" stroke="rgb(0,0,0)" stroke-width="1" opacity="1" d="M 437 603 L 448.5 603 L 449 603.5 L 449 663 L 490.5 663 L 491 663.5 L 491 675 L 437 675 L 437 603 Z " /><path fill="rgb(0,0,0)" stroke="rgb(0,0,0)" stroke-width="1" opacity="1" d="M 503 603 L 527 603 L 527 615 L 521.5 615 L 521 615.5 L 521 663 L 527 663 L 527 675 L 503 675 L 503 663 L 508.5 663 L 509 662.5 L 509 615 L 503 615 L 503 603 Z " /><path fill="rgb(0,0,0)" stroke="rgb(0,0,0)" stroke-width="1" opacity="1" d="M 533 603 L 545 603 L 545 633 L 557 633 L 557 651 L 569 651 L 569 633 L 580.5 633 L 581 632.5 L 581 603 L 593 603 L 593 633 L 581 633 L 581 651 L 569.5 651 L 569 651.5 L 569 675 L 557 675 L 557 651 L 545 651 L 545 633 L 533 633 L 533 603 Z " /><path fill="rgb(0,0,0)" stroke="rgb(0,0,0)" stroke-width="1" opacity="1" d="M 599 603 L 658.5 603 L 659 603.5 L 659 615 L 611.5 615 L 611 615.5 L 611 627 L 629 627 L 629 639 L 611 639 L 611 663 L 658.5 663 L 659 663.5 L 659 675 L 599 675 L 599 603 Z " /><path fill="rgb(0,0,0)" stroke="rgb(0,0,0)" stroke-width="1" opacity="1" d="M 665 663 L 677 663 L 677 675 L 665 675 L 665 663 Z " /></svg>