<svg width="143" height="191" viewBox="0 0 143 191" fill="none" xmlns="http://www.w3.org/2000/svg">
<path fill-rule="evenodd" clip-rule="evenodd" d="M127.111 0H15.8889V15.8889L0 15.8889V31.7778V63.5556H15.8889V79.4444H31.7778V95.3333H63.5556V111.222H31.7778V127.111L15.8889 127.111V143H0V174.778H15.8889V190.667H127.111L127.111 174.778H143V143H127.111V127.111L111.222 127.111V111.222H79.4444V95.3333H111.222V79.4444H127.111V63.5556H143V31.7778V15.8889L127.111 15.8889V0ZM111.222 31.7778H127.111V63.5556H95.3333V79.4444H47.6667V63.5556H15.8889V31.7778H31.7778V47.6667H111.222V31.7778ZM111.222 31.7778V15.8889H31.7778V31.7778H111.222ZM95.3333 143V127.111L79.4444 127.111V111.222H63.5556V127.111L47.6667 127.111V143H15.8889V174.778L31.7778 174.778V158.889H47.6667V143H95.3333ZM95.3333 143V158.889H111.222V174.778L127.111 174.778V143H95.3333Z" fill="white"/>
</svg>
